<svg xmlns="http://www.w3.org/2000/svg" viewBox="0 0 176.93 23.81"><defs><style>.cls-1{fill:#fff;}</style></defs><g id="Layer_2" data-name="Layer 2"><g id="Layer_1-2" data-name="Layer 1"><path class="cls-1" d="M15.29,16.65c-3.76,0-7.58,0-11.34.06C2.78,19.06,1.6,21.46.49,23.81H0C2.9,15.91,5.74,8,8.63.06h2.1c3,7.9,5.92,15.79,8.88,23.75H19c-.67-1.12-1.29-2.35-2-3.58S15.85,17.82,15.29,16.65ZM4.44,15.42H14.86L9.62,2.47Z"/><path class="cls-1" d="M105.09.19,105,16.1a7.52,7.52,0,0,1-1.11,4.13,6.92,6.92,0,0,1-3,2.65,10.11,10.11,0,0,1-4.38.93,8.64,8.64,0,0,1-6-2,7.29,7.29,0,0,1-2.34-5.61L88.25.06h2l-.07,15.79A7.19,7.19,0,0,0,92,20.41a6.33,6.33,0,0,0,4.75,2.35,6.5,6.5,0,0,0,4.63-2.35,7.16,7.16,0,0,0,1.72-4.56L103.11,0Z"/><path class="cls-1" d="M126.8,23.62h-1.18c-4.87-6.66-9.68-13.38-14.55-20-.19,6.66-.43,13.32-.68,20h-.86c-.19-7.77-.37-15.6-.56-23.37h2l13.75,20,.06-20h2Z"/><path class="cls-1" d="M62.84,23.44H62C61.79,15.6,61.61,7.83,61.42,0h2C63.21,7.83,63,15.66,62.84,23.44Z"/><path class="cls-1" d="M43.85,14.18c-.25,3.15-.5,6.36-.74,9.5a2.18,2.18,0,0,0-.62.06c-.18-7.83-.37-15.6-.55-23.43h8a8.25,8.25,0,0,1,5.8,1.91,6.43,6.43,0,0,1,2.1,5.12,6.51,6.51,0,0,1-2,5.12,8.81,8.81,0,0,1-5.92,1.79Zm0-1.66h6a6.2,6.2,0,0,0,4.38-1.36,4.94,4.94,0,0,0,1.54-3.82,5.26,5.26,0,0,0-1.48-3.89A5.78,5.78,0,0,0,50,2H43.91Z"/><path class="cls-1" d="M24.92,14.18c-.25,3.15-.5,6.36-.74,9.5a2.14,2.14,0,0,0-.62.06c-.19-7.83-.37-15.6-.56-23.43h8a8.25,8.25,0,0,1,5.8,1.91,6.42,6.42,0,0,1,2.09,5.12,6.51,6.51,0,0,1-2,5.12A8.83,8.83,0,0,1,31,14.25Zm0-1.66h6a6.2,6.2,0,0,0,4.38-1.36,5,5,0,0,0,1.54-3.82,5.3,5.3,0,0,0-1.48-3.89A5.8,5.8,0,0,0,31.08,2H25Z"/><path class="cls-1" d="M132.84,23.62H132c-.19-7.83-.37-15.6-.56-23.43h2C133.21,8,133,15.85,132.84,23.62Z"/><path class="cls-1" d="M154.79,2h-8c-.25,7.28-.5,14.5-.74,21.77h-.8c-.13-7.27-.31-14.49-.44-21.77h-8V.31l18,.06Z"/><path class="cls-1" d="M167.44,13.14,174.65.37h2.28l-8.51,14.55c-.18,3-.3,5.86-.49,8.82h-.86c-.19-3-.37-5.92-.62-8.82L158.06.25h2.35Z"/><path class="cls-1" d="M85.6,2h-8c-.24,7.28-.49,14.5-.74,21.77H76c-.12-7.27-.31-14.49-.43-21.77h-8V.31l18,.06Z"/></g></g></svg>