<svg xmlns="http://www.w3.org/2000/svg" xmlns:xlink="http://www.w3.org/1999/xlink" viewBox="0 0 461.7 102.5"><defs><style>.cls-1{fill:url(#linear-gradient);}.cls-2{fill:url(#linear-gradient-2);}.cls-3{fill:url(#linear-gradient-3);}.cls-4{fill:url(#linear-gradient-4);}.cls-5{fill:url(#linear-gradient-5);}.cls-6{fill:url(#linear-gradient-6);}.cls-7{fill:url(#linear-gradient-7);}.cls-8{fill:url(#linear-gradient-8);}.cls-9{fill:url(#linear-gradient-9);}.cls-10{fill:url(#linear-gradient-10);}.cls-11{fill:url(#linear-gradient-11);}.cls-12{fill:url(#linear-gradient-12);}.cls-13{fill:url(#linear-gradient-13);}.cls-14{fill:url(#linear-gradient-14);}</style><linearGradient id="linear-gradient" x1="155.4" y1="2.3" x2="155.4" y2="104.8" gradientTransform="matrix(1, 0, 0, -1, 0, 104.8)" gradientUnits="userSpaceOnUse"><stop offset="0.02" stop-color="#9a5745"/><stop offset="0.52" stop-color="#ecca0a"/><stop offset="1" stop-color="#955947"/></linearGradient><linearGradient id="linear-gradient-2" x1="114.65" y1="19.9" x2="114.65" y2="85.3" gradientTransform="matrix(1, 0, 0, -1, 0, 104.8)" gradientUnits="userSpaceOnUse"><stop offset="0" stop-color="#624c9f"/><stop offset="0.65" stop-color="#5f6db4"/><stop offset="1" stop-color="#5d80c0"/></linearGradient><linearGradient id="linear-gradient-3" x1="76.12" y1="19.7" x2="76.12" y2="84.9" gradientTransform="matrix(1, 0, 0, -1, 0, 104.8)" gradientUnits="userSpaceOnUse"><stop offset="0" stop-color="#097a9a"/><stop offset="0.5" stop-color="#2a9789"/><stop offset="1" stop-color="#4eb875"/></linearGradient><linearGradient id="linear-gradient-4" x1="34.09" y1="19.9" x2="34.09" y2="81.64" gradientTransform="matrix(1, 0, 0, -1, 0, 104.8)" gradientUnits="userSpaceOnUse"><stop offset="0" stop-color="#832976"/><stop offset="0.66" stop-color="#cd5c9a"/><stop offset="1" stop-color="#ee72aa"/></linearGradient><linearGradient id="linear-gradient-5" x1="190.9" y1="33.95" x2="190.9" y2="72.45" xlink:href="#linear-gradient-2"/><linearGradient id="linear-gradient-6" x1="331.65" y1="33.95" x2="331.65" y2="72.55" xlink:href="#linear-gradient-2"/><linearGradient id="linear-gradient-7" x1="366.1" y1="34.25" x2="366.1" y2="72.25" xlink:href="#linear-gradient-2"/><linearGradient id="linear-gradient-8" x1="276.2" y1="34.55" x2="276.2" y2="72.55" xlink:href="#linear-gradient-2"/><linearGradient id="linear-gradient-9" x1="255.9" y1="34.05" x2="255.9" y2="72.05" xlink:href="#linear-gradient-2"/><linearGradient id="linear-gradient-10" x1="225.2" y1="34.05" x2="225.2" y2="72.05" xlink:href="#linear-gradient-2"/><linearGradient id="linear-gradient-11" x1="389.6" y1="34.25" x2="389.6" y2="72.25" xlink:href="#linear-gradient-2"/><linearGradient id="linear-gradient-12" x1="411.2" y1="34.05" x2="411.2" y2="72.05" xlink:href="#linear-gradient-2"/><linearGradient id="linear-gradient-13" x1="446.4" y1="34.05" x2="446.4" y2="72.15" xlink:href="#linear-gradient-2"/><linearGradient id="linear-gradient-14" x1="299.1" y1="34.05" x2="299.1" y2="72.05" xlink:href="#linear-gradient-2"/></defs><g id="Layer_2" data-name="Layer 2"><g id="Layer_1-2" data-name="Layer 1"><g id="Layer_3" data-name="Layer 3"><polygon class="cls-1" points="155.4 1.2 155.4 0 153.9 51.5 155.4 102.5 155.4 102.4 156.9 51.5 155.4 1.2"/></g><g id="Layer_4" data-name="Layer 4"><path class="cls-2" d="M144.2,42.4c-.1-.1-.2-.1-.2-.2-.1.1-.3.2-.4.3-7.8,6.7-15.5,13.5-23.3,20.2-1.2,1-1.4,1-1.9-.4-2.4-5.8-4.8-11.5-7.3-17.3-2.1-5.1-4.2-10.1-6.4-15.2l-3.9-9.3a1.33,1.33,0,0,0-1.5-1H86.4c-1.4,0-1.5.2-1.1,1.3,0,.1.1.2.1.4,2.6,6,5.1,11.9,7.7,17.9,2,4.6,3.9,9.2,5.9,13.7,1.5,3.5,3.2,6.9,4.7,10.4,1.8,4.1,3.4,8.3,5.2,12.5l3.6,8.4c.1.3.4.5.6.8Q128.55,63.75,144.2,42.4Z"/></g><g id="Layer_5" data-name="Layer 5"><path class="cls-3" d="M82.5,85.1c.2-.3.4-.4.5-.6,1.8-2.4,3.5-4.7,5.3-7.1,2.9-3.9,5.7-7.9,8.6-11.8a1.53,1.53,0,0,0,.2-1.7l-.3-.6-1.5-3.6c-.3-.7-.6-.8-1.2-.3a15.38,15.38,0,0,0-1.3,1.2c-1.1.9-2.2,1.9-3.3,2.8-.5.4-.8.4-1.1-.2a.37.37,0,0,1-.1-.3c-2-4.7-3.9-9.4-5.9-14.1-3.9-9.3-7.9-18.7-11.8-28-.3-.8-.6-.9-1.5-.9H55.9c-.9,0-1.1.2-.8,1,1,2.4,2.1,4.7,3.1,7.1,3.6,8.4,7.2,16.7,10.7,25.1C71.8,60,74.7,67,77.7,73.9l4.5,10.5C82.1,84.5,82.3,84.8,82.5,85.1Z"/></g><g id="Layer_6" data-name="Layer 6"><path class="cls-4" d="M0,83.3l.2.2a2.09,2.09,0,0,0,.6-.4c3.5-3,7.1-6,10.5-9,7.6-6.7,15.2-13.5,22.8-20.3,2.3-2.1,4.6-4.1,6.9-6.2,1-.9,1.4-.8,1.9.3,1.8,4,3.7,8.1,5.5,12.1,3.7,8.1,7.3,16.3,11,24.4.1.2.3.5.5.5a1.27,1.27,0,0,0,.7-.4l2.1-2.7c1.6-2.1,3.2-4.2,4.8-6.2a3,3,0,0,0,.3-3.4c-1.1-2.2-2-4.4-3-6.6-2.5-6.1-5-12.2-7.5-18.2-2.7-6.4-5.4-12.9-8.1-19.3-.6-1.5-1.3-2.9-1.9-4.4-.3-.7-.6-.7-1.1-.1-.3.3-.5.6-.8.9-5.5,7.1-11,14.2-16.6,21.3C25.5,50,22.2,54.1,19,58.2L5.8,75.3.7,81.9A9.14,9.14,0,0,1,0,83.3Z"/></g><g id="Layer_2-2" data-name="Layer 2"><path class="cls-5" d="M199.8,59.3c-6.1,0-12.3,0-18.4.1-1.9,3.8-3.8,7.7-5.6,11.5H175c4.7-12.8,9.3-25.7,14-38.5h3.4c4.8,12.8,9.6,25.6,14.4,38.5h-1c-1.1-1.8-2.1-3.8-3.2-5.8C201.7,63.1,200.7,61.2,199.8,59.3Zm-17.6-2h16.9l-8.5-21Z"/><path class="cls-6" d="M345.4,32.6l-.2,25.8a12.2,12.2,0,0,1-1.8,6.7,11.13,11.13,0,0,1-4.8,4.3,16.42,16.42,0,0,1-7.1,1.5c-4.1,0-7.4-1.1-9.8-3.3s-3.7-5.2-3.8-9.1l.1-26.1h3.3L321.2,58a11.63,11.63,0,0,0,2.8,7.4c.6.7,3.4,3.9,7.7,3.8a10.48,10.48,0,0,0,7.5-3.8A11.63,11.63,0,0,0,342,58l.1-25.7Z"/><path class="cls-7" d="M380.5,70.6h-1.9c-7.9-10.8-15.7-21.7-23.6-32.5-.3,10.8-.7,21.6-1.1,32.4h-1.4c-.3-12.6-.6-25.3-.9-37.9h3.3l22.3,32.5.1-32.5h3.3Z"/><path class="cls-8" d="M276.9,70.3h-1.4c-.3-12.7-.6-25.3-.9-38h3.2C277.5,45,277.1,57.7,276.9,70.3Z"/><path class="cls-9" d="M246.1,55.3c-.4,5.1-.8,10.3-1.2,15.4a3.4,3.4,0,0,0-1,.1c-.3-12.7-.6-25.3-.9-38h13c4,0,7.1,1,9.4,3.1a10.43,10.43,0,0,1,3.4,8.3c0,3.6-1.1,6.3-3.3,8.3s-5.4,2.9-9.6,2.9Zm0-2.7h9.7c3.1,0,5.5-.7,7.1-2.2a8,8,0,0,0,2.5-6.2,8.52,8.52,0,0,0-2.4-6.3q-2.4-2.4-6.9-2.4h-9.9Z"/><path class="cls-10" d="M215.4,55.3c-.4,5.1-.8,10.3-1.2,15.4a3.4,3.4,0,0,0-1,.1c-.3-12.7-.6-25.3-.9-38h13c4,0,7.1,1,9.4,3.1a10.43,10.43,0,0,1,3.4,8.3c0,3.6-1.1,6.3-3.3,8.3s-5.4,2.9-9.6,2.9Zm0-2.7h9.7c3.1,0,5.5-.7,7.1-2.2a8,8,0,0,0,2.5-6.2,8.52,8.52,0,0,0-2.4-6.3q-2.4-2.4-6.9-2.4h-9.9Z"/><path class="cls-11" d="M390.3,70.6h-1.4c-.3-12.7-.6-25.3-.9-38h3.2C390.8,45.3,390.5,58,390.3,70.6Z"/><path class="cls-12" d="M425.8,35.5h-13c-.4,11.8-.8,23.5-1.2,35.3h-1.3c-.2-11.8-.5-23.5-.7-35.3h-13V32.8l29.2.1Z"/><path class="cls-13" d="M446.3,53.6,458,32.9h3.7L447.9,56.5c-.3,4.8-.5,9.5-.8,14.3h-1.4c-.3-4.8-.6-9.6-1-14.3L431.1,32.7h3.8Z"/><path class="cls-14" d="M313.7,35.5h-13c-.4,11.8-.8,23.5-1.2,35.3h-1.3c-.2-11.8-.5-23.5-.7-35.3h-13V32.8l29.2.1Z"/></g></g></g></svg>