<svg xmlns="http://www.w3.org/2000/svg" viewBox="0 0 144.2 65.6"><defs><style>.cls-1{fill:#fff;}</style></defs><g id="Layer_2" data-name="Layer 2"><g id="Layer_1-2" data-name="Layer 1"><path class="cls-1" d="M0,63.8l.2.2a2.09,2.09,0,0,0,.6-.4c3.5-3,7.1-6,10.5-9,7.6-6.7,15.2-13.5,22.8-20.3,2.3-2.1,4.6-4.1,6.9-6.2,1-.9,1.4-.8,1.9.3,1.8,4,3.7,8.1,5.5,12.1,3.7,8.1,7.3,16.3,11,24.4.1.2.3.5.5.5a1.27,1.27,0,0,0,.7-.4l2.1-2.7c1.6-2.1,3.2-4.2,4.8-6.2a3,3,0,0,0,.3-3.4c-1.1-2.2-2-4.4-3-6.6-2.5-6.1-5-12.2-7.5-18.2C54.6,21.5,51.9,15,49.2,8.6c-.6-1.5-1.3-2.9-1.9-4.4-.3-.7-.6-.7-1.1-.1-.3.3-.5.6-.8.9-5.5,7.1-11,14.2-16.6,21.3-3.3,4.2-6.6,8.3-9.8,12.4L5.8,55.8.7,62.4A9.14,9.14,0,0,1,0,63.8ZM144.2,22.9c-.1-.1-.2-.1-.2-.2-.1.1-.3.2-.4.3-7.8,6.7-15.5,13.5-23.3,20.2-1.2,1-1.4,1-1.9-.4-2.4-5.8-4.8-11.5-7.3-17.3-2.1-5.1-4.2-10.1-6.4-15.2L100.8,1a1.33,1.33,0,0,0-1.5-1H86.4C85,0,84.9.2,85.3,1.3c0,.1.1.2.1.4,2.6,6,5.1,11.9,7.7,17.9,2,4.6,3.9,9.2,5.9,13.7,1.5,3.5,3.2,6.9,4.7,10.4,1.8,4.1,3.4,8.3,5.2,12.5l3.6,8.4c.1.3.4.5.6.8Q128.55,44.25,144.2,22.9ZM82.5,65.6c.2-.3.4-.4.5-.6,1.8-2.4,3.5-4.7,5.3-7.1C91.2,54,94,50,96.9,46.1a1.53,1.53,0,0,0,.2-1.7l-.3-.6-1.5-3.6c-.3-.7-.6-.8-1.2-.3a15.38,15.38,0,0,0-1.3,1.2c-1.1.9-2.2,1.9-3.3,2.8-.5.4-.8.4-1.1-.2a.37.37,0,0,1-.1-.3c-2-4.7-3.9-9.4-5.9-14.1-3.9-9.3-7.9-18.7-11.8-28C70.3.5,70,.4,69.1.4H55.9c-.9,0-1.1.2-.8,1,1,2.4,2.1,4.7,3.1,7.1,3.6,8.4,7.2,16.7,10.7,25.1,2.9,6.9,5.8,13.9,8.8,20.8l4.5,10.5C82.1,65,82.3,65.3,82.5,65.6Z"/></g></g></svg>