<svg xmlns="http://www.w3.org/2000/svg" viewBox="0 0 461.9 102.6"><defs><style>.cls-1{fill:#fff;}</style></defs><g id="Layer_2" data-name="Layer 2"><g id="Layer_1-2" data-name="Layer 1"><path class="cls-1" d="M199.8,59.3c-6.1,0-12.3,0-18.4.1-1.9,3.8-3.8,7.7-5.6,11.5H175c4.7-12.8,9.3-25.7,14-38.5h3.4c4.8,12.8,9.6,25.6,14.4,38.5h-1c-1.1-1.8-2.1-3.8-3.2-5.8C201.7,63.1,200.7,61.2,199.8,59.3Zm-17.6-2h16.9l-8.5-21Z"/><path class="cls-1" d="M345.4,32.6l-.1,25.8a12.2,12.2,0,0,1-1.8,6.7,11.13,11.13,0,0,1-4.8,4.3,16.42,16.42,0,0,1-7.1,1.5c-4.1,0-7.4-1.1-9.8-3.3s-3.7-5.2-3.8-9.1l.1-26.1h3.3L321.3,58a11.63,11.63,0,0,0,2.8,7.4c.6.7,3.4,3.9,7.7,3.8a10.48,10.48,0,0,0,7.5-3.8,11.63,11.63,0,0,0,2.8-7.4l.1-25.7Z"/><path class="cls-1" d="M380.6,70.6h-1.9c-7.9-10.8-15.7-21.7-23.6-32.5-.3,10.8-.7,21.6-1.1,32.4h-1.4c-.3-12.6-.6-25.3-.9-37.9H355l22.3,32.5.1-32.5h3.3Z"/><path class="cls-1" d="M276.9,70.3h-1.4c-.3-12.7-.6-25.3-.9-38h3.2C277.5,45,277.2,57.7,276.9,70.3Z"/><path class="cls-1" d="M246.1,55.3c-.4,5.1-.8,10.3-1.2,15.4a3.4,3.4,0,0,0-1,.1c-.3-12.7-.6-25.3-.9-38h13c4,0,7.1,1,9.4,3.1a10.43,10.43,0,0,1,3.4,8.3c0,3.6-1.1,6.3-3.3,8.3s-5.4,2.9-9.6,2.9Zm0-2.7h9.7c3.1,0,5.5-.7,7.1-2.2a8,8,0,0,0,2.5-6.2,8.52,8.52,0,0,0-2.4-6.3q-2.4-2.4-6.9-2.4h-9.9Z"/><path class="cls-1" d="M215.4,55.3c-.4,5.1-.8,10.3-1.2,15.4a3.4,3.4,0,0,0-1,.1c-.3-12.7-.6-25.3-.9-38h13c4,0,7.1,1,9.4,3.1a10.43,10.43,0,0,1,3.4,8.3c0,3.6-1.1,6.3-3.3,8.3s-5.4,2.9-9.6,2.9Zm0-2.7h9.7c3.1,0,5.5-.7,7.1-2.2a8,8,0,0,0,2.5-6.2,8.52,8.52,0,0,0-2.4-6.3q-2.4-2.4-6.9-2.4h-9.9Z"/><path class="cls-1" d="M390.4,70.6H389c-.3-12.7-.6-25.3-.9-38h3.2C391,45.3,390.7,58,390.4,70.6Z"/><path class="cls-1" d="M426,35.5H413c-.4,11.8-.8,23.5-1.2,35.3h-1.3c-.2-11.8-.5-23.5-.7-35.3h-13V32.8l29.2.1Z"/><path class="cls-1" d="M446.5,53.6l11.7-20.7h3.7L448.1,56.5c-.3,4.8-.5,9.5-.8,14.3h-1.4c-.3-4.8-.6-9.6-1-14.3L431.3,32.7h3.8Z"/><path class="cls-1" d="M313.8,35.5h-13c-.4,11.8-.8,23.5-1.2,35.3h-1.3c-.2-11.8-.5-23.5-.7-35.3h-13V32.8l29.2.1Z"/><polygon class="cls-1" points="155.4 102.6 155.4 51.6 154 51.6 155.4 102.6"/><polygon class="cls-1" points="155.4 0 155.4 51.6 154 51.6 155.4 0"/><polygon class="cls-1" points="155.4 102.4 155.4 51.6 156.9 51.6 155.4 102.4"/><polygon class="cls-1" points="155.4 1.2 155.4 51.6 156.9 51.6 155.4 1.2"/><path class="cls-1" d="M0,83.3l.2.2a2.09,2.09,0,0,0,.6-.4c3.5-3,7.1-6,10.5-9,7.6-6.7,15.2-13.5,22.8-20.3,2.3-2.1,4.6-4.1,6.9-6.2,1-.9,1.4-.8,1.9.3,1.8,4,3.7,8.1,5.5,12.1,3.7,8.1,7.3,16.3,11,24.4.1.2.3.5.5.5a1.27,1.27,0,0,0,.7-.4l2.1-2.7c1.6-2.1,3.2-4.2,4.8-6.2a3,3,0,0,0,.3-3.4c-1.1-2.2-2-4.4-3-6.6-2.5-6.1-5-12.2-7.5-18.2-2.7-6.4-5.4-12.9-8.1-19.3-.6-1.5-1.3-2.9-1.9-4.4-.3-.7-.6-.7-1.1-.1-.3.3-.5.6-.8.9-5.5,7.1-11,14.2-16.6,21.3C25.5,50,22.2,54.1,19,58.2L5.8,75.3.7,81.9A9.14,9.14,0,0,1,0,83.3ZM144.2,42.4c-.1-.1-.2-.1-.2-.2-.1.1-.3.2-.4.3-7.8,6.7-15.5,13.5-23.3,20.2-1.2,1-1.4,1-1.9-.4-2.4-5.8-4.8-11.5-7.3-17.3-2.1-5.1-4.2-10.1-6.4-15.2l-3.9-9.3a1.33,1.33,0,0,0-1.5-1H86.4c-1.4,0-1.5.2-1.1,1.3,0,.1.1.2.1.4,2.6,6,5.1,11.9,7.7,17.9,2,4.6,3.9,9.2,5.9,13.7,1.5,3.5,3.2,6.9,4.7,10.4,1.8,4.1,3.4,8.3,5.2,12.5l3.6,8.4c.1.3.4.5.6.8Q128.55,63.75,144.2,42.4ZM82.5,85.1c.2-.3.4-.4.5-.6,1.8-2.4,3.5-4.7,5.3-7.1,2.9-3.9,5.7-7.9,8.6-11.8a1.53,1.53,0,0,0,.2-1.7l-.3-.6-1.5-3.6c-.3-.7-.6-.8-1.2-.3a15.38,15.38,0,0,0-1.3,1.2c-1.1.9-2.2,1.9-3.3,2.8-.5.4-.8.4-1.1-.2a.37.37,0,0,1-.1-.3c-2-4.7-3.9-9.4-5.9-14.1-3.9-9.3-7.9-18.7-11.8-28-.3-.8-.6-.9-1.5-.9H55.9c-.9,0-1.1.2-.8,1,1,2.4,2.1,4.7,3.1,7.1,3.6,8.4,7.2,16.7,10.7,25.1C71.8,60,74.7,67,77.7,73.9l4.5,10.5C82.1,84.5,82.3,84.8,82.5,85.1Z"/></g></g></svg>